<svg xmlns="http://www.w3.org/2000/svg" viewBox="0 0 8.995833 11.244792375">
  <g>
    <path style="color:#000000;paint-order:fill markers stroke;"
      d="m 4.4986927,1.3229162 c -1.750512,0 -3.175776,1.425265 -3.175776,3.175774 0,1.750512 1.425264,3.174227 3.175776,3.174227 1.75051,0 3.174224,-1.423715 3.174224,-3.174227 0,-1.750509 -1.423714,-3.175774 -3.174224,-3.175774 z m 0,0.52921 c 1.464504,0 2.645015,1.182061 2.645015,2.646564 0,1.464506 -1.180511,2.645017 -2.645015,2.645017 -1.464506,0 -2.646566,-1.180511 -2.646566,-2.645017 0,-1.464503 1.18206,-2.646564 2.646566,-2.646564 z m 1.316822,1.371087 a 0.26460502,0.26460502 0 0 0 -0.181916,0.09199 l -1.553003,1.802621 -0.72818,-0.751954 a 0.26460502,0.26460502 0 0 0 -0.375201,-0.0036 0.26460502,0.26460502 0 0 0 -0.0041,0.373135 l 0.928184,0.958674 a 0.26463148,0.26463148 0 0 0 0.390706,-0.01137 l 1.742154,-2.023812 a 0.26460502,0.26460502 0 0 0 -0.02739,-0.373135 0.26460502,0.26460502 0 0 0 -0.191218,-0.06253 z"
      fill="#444444" fill-rule="evenodd" stroke-width="1.00008" stroke-linecap="round"
      stroke-linejoin="round" />
  </g>
</svg>